<svg xmlns="http://www.w3.org/2000/svg" xmlns:xlink="http://www.w3.org/1999/xlink" viewBox="0 0 2524.99 116.25"><defs><style>.cls-1{fill:#238c7d;}.cls-2{fill:#fff;fill-rule:evenodd;}.cls-3{fill:#99a8b3;}.cls-4{isolation:isolate;}.cls-5{fill:#248d7e;}.cls-6{fill:#248c7d;}.cls-7{fill:url(#linear-gradient);}</style><linearGradient id="linear-gradient" x1="1337.01" y1="21.26" x2="1358.01" y2="46.29" gradientUnits="userSpaceOnUse"><stop offset="0" stop-color="#248c7d"/><stop offset="1" stop-color="#196c61"/></linearGradient></defs><title>Asset 5</title><g id="Layer_2" data-name="Layer 2"><g id="Camada_1" data-name="Camada 1"><rect class="cls-1" x="685.38" width="446.4" height="115.94"/><path class="cls-2" d="M707.35,98.93h-22v2.5h22v-2.5Zm0-16.89h-22v2.51h22V82Zm0-16.89h-22v2.51h22V65.15Zm0-16.89h-22v2.51h22V48.26Zm0-16.88h-22v2.51h22V31.38Zm0-16.89h-22V17h22Z"/><path class="cls-2" d="M1131.78,98.93h-22v2.5h22v-2.5Zm0-16.89h-22v2.51h22V82Zm0-16.89h-22v2.51h22V65.15Zm0-16.89h-22v2.51h22V48.26Zm0-16.88h-22v2.51h22V31.38Zm0-16.89h-22V17h22Z"/><rect class="cls-1" x="550.31" width="123.17" height="115.92"/><path class="cls-2" d="M564.8,98.93H659v2.5H564.8v-2.5Zm0-16.89H659v2.51H564.8V82Zm0-16.89H659v2.51H564.8V65.15Zm0-16.89H659v2.51H564.8V48.26Zm0-16.88H659v2.51H564.8V31.38Zm0-16.89H659V17H564.8Z"/><path class="cls-2" d="M588.52,29.7l2.27-11h7.8l-.35,2.15h-4.8l-.49,2.4h4.45l-.49,2.27h-4.43l-.84,4.21Zm9.23,0H601l2.27-11h-3.12l-2.39,11Zm4.92,0,2.29-11h8.51L613,20.82h-5.27L607.22,23h4.92l-.47,2.28h-4.92l-.49,2.15h5.41l-.48,2.29Zm11.64-7.31h0a2.27,2.27,0,0,0,.39,1.49,2.23,2.23,0,0,0,.84.66l.35.13.32.11h0l0,0h0A6.35,6.35,0,0,0,617,25l.85.22a11.15,11.15,0,0,1,1.28.46c.39.17.58.39.58.64v.14a.88.88,0,0,1-.34.73,2.34,2.34,0,0,1-.74.41,2.78,2.78,0,0,1-.46.11,2,2,0,0,1-.38,0,1.26,1.26,0,0,1-1-.37,1.45,1.45,0,0,1-.32-1v-.16a1.34,1.34,0,0,1,0-.19l-3.1,0,0,.24,0,.25c0,.08,0,.16,0,.24a1.93,1.93,0,0,0,0,.24,3,3,0,0,0,.76,2c.51.58,1.6.87,3.26.87a6.3,6.3,0,0,0,4.32-1.29,3.8,3.8,0,0,0,1.44-2.9,2.42,2.42,0,0,0,0-.45,2,2,0,0,0-.13-.46,2.26,2.26,0,0,0-.69-.93,3.52,3.52,0,0,0-1.53-.67,12.76,12.76,0,0,1-2.13-.63c-.58-.24-.87-.51-.87-.82a.91.91,0,0,1,.43-.78,1.92,1.92,0,0,1,.94-.34h.2a1.56,1.56,0,0,1,.86.23.81.81,0,0,1,.37.77,1,1,0,0,1,0,.17.58.58,0,0,1,0,.18l3.13,0a5.18,5.18,0,0,0,.13-.58,4.81,4.81,0,0,0,0-.52,2,2,0,0,0-1-1.85,5.32,5.32,0,0,0-2.14-.62l-.38,0h-.37a7.21,7.21,0,0,0-3.75.95,3.58,3.58,0,0,0-1.76,3Zm10.29,3.35a11,11,0,0,1,.09-1.33,8.81,8.81,0,0,1,.32-1.49,7.58,7.58,0,0,1,2-3.12,6.36,6.36,0,0,1,4.44-1.48l.75,0,.8.09a5.8,5.8,0,0,1,2.14.74,2,2,0,0,1,1,1.89c0,.13,0,.27,0,.41a2.29,2.29,0,0,1-.09.44h-3.35l0-.16c0-.06,0-.1,0-.15a1,1,0,0,0-.32-.8,1.58,1.58,0,0,0-.68-.35l-.38-.06-.33,0-.27,0-.28.06a2.75,2.75,0,0,0-1.32,1,6.21,6.21,0,0,0-1,2.48,2.56,2.56,0,0,0-.05.27,2.51,2.51,0,0,0,0,.27c0,.2,0,.39-.07.57s0,.36,0,.53a3,3,0,0,0,.34,1.48,1.36,1.36,0,0,0,1.29.61h.16l.19,0a1.15,1.15,0,0,0,.31,0,1.67,1.67,0,0,0,.34-.11,2.44,2.44,0,0,0,.82-.6,1.57,1.57,0,0,0,.45-.92L635,26s0,.06,0,.09,0,.05,0,.08a2.24,2.24,0,0,1-.2.76,4,4,0,0,1-.64,1,6,6,0,0,1-1.84,1.39,6.69,6.69,0,0,1-3.08.62h-.26c-1.71,0-2.85-.35-3.43-1.05a4.21,4.21,0,0,1-1-2.33c0-.13,0-.27,0-.4s0-.28,0-.41ZM587.73,42.61a11.12,11.12,0,0,1,.09-1.33,9,9,0,0,1,.32-1.49,7.61,7.61,0,0,1,2-3.11,6.31,6.31,0,0,1,4.44-1.48c.23,0,.48,0,.74,0a7.4,7.4,0,0,1,.81.08,5.65,5.65,0,0,1,2.13.75,2,2,0,0,1,1,1.89c0,.13,0,.27,0,.41a3.82,3.82,0,0,1-.09.44h-3.35a1,1,0,0,0,0-.16.86.86,0,0,0,0-.15,1,1,0,0,0-.31-.81,1.7,1.7,0,0,0-.68-.35,2.63,2.63,0,0,0-.39-.06h-.32a1.27,1.27,0,0,0-.28,0l-.27.05a2.79,2.79,0,0,0-1.33,1,6.32,6.32,0,0,0-1,2.47l-.06.28,0,.27c0,.19-.06.38-.07.56a5,5,0,0,0,0,.54,2.93,2.93,0,0,0,.35,1.47,1.32,1.32,0,0,0,1.28.61H593a1.17,1.17,0,0,0,.32,0,3.3,3.3,0,0,0,.34-.11,2.74,2.74,0,0,0,.82-.61,1.53,1.53,0,0,0,.44-.92h3.23l0,.08V43a2.07,2.07,0,0,1-.2.77,3.94,3.94,0,0,1-.64,1,5.84,5.84,0,0,1-1.83,1.38,6.61,6.61,0,0,1-3.08.63h-.26c-1.71,0-2.85-.35-3.43-1a4.24,4.24,0,0,1-1-2.33c0-.14,0-.27,0-.41s0-.27,0-.4v0Zm11.29,4h3.24l2.27-11h-3.12l-2.39,11Zm4.91,0,2.29-11h8.51l-.48,2.14H609l-.48,2.17h4.92l-.47,2.28H608l-.49,2.15h5.41l-.49,2.28Zm11.64-7.31v0a2,2,0,0,0,1.23,2.14,2.19,2.19,0,0,0,.35.13l.32.12h0l0,0h0a6.31,6.31,0,0,0,.68.21l.85.23a8,8,0,0,1,1.28.46c.39.17.58.38.58.64v.13a.92.92,0,0,1-.33.74,2.51,2.51,0,0,1-1.21.52,2,2,0,0,1-.38,0,1.32,1.32,0,0,1-1-.37,1.47,1.47,0,0,1-.32-1v-.16a1.37,1.37,0,0,1,0-.19h-3.11l0,.25,0,.24a1.93,1.93,0,0,1,0,.24c0,.09,0,.17,0,.25a2.92,2.92,0,0,0,.77,2c.5.58,1.59.87,3.26.87a6.27,6.27,0,0,0,4.31-1.29,3.83,3.83,0,0,0,1.44-2.9,2.42,2.42,0,0,0,0-.45,2,2,0,0,0-.12-.47,2.43,2.43,0,0,0-.7-.92,3.41,3.41,0,0,0-1.53-.67,13.55,13.55,0,0,1-2.12-.64c-.59-.24-.88-.51-.88-.81a.93.93,0,0,1,.43-.79,2.06,2.06,0,0,1,.94-.34h.2a1.6,1.6,0,0,1,.87.24.8.8,0,0,1,.36.77v.16a1.06,1.06,0,0,1,0,.19h3.12a4.35,4.35,0,0,0,.13-.58,4.73,4.73,0,0,0,0-.52A2,2,0,0,0,624,36a5.35,5.35,0,0,0-2.15-.61l-.37,0h-.38a7.2,7.2,0,0,0-3.75.94,3.6,3.6,0,0,0-1.76,3Zm10.3,3.35a11.12,11.12,0,0,1,.09-1.33,8.11,8.11,0,0,1,.32-1.49,7.58,7.58,0,0,1,2-3.11,6.34,6.34,0,0,1,4.45-1.48c.23,0,.48,0,.74,0a7.92,7.92,0,0,1,.81.08,5.65,5.65,0,0,1,2.13.75,2,2,0,0,1,1,1.89,2.93,2.93,0,0,1,0,.41,2.41,2.41,0,0,1-.08.44h-3.35a1,1,0,0,0,0-.16.86.86,0,0,0,0-.15,1,1,0,0,0-.31-.81,1.77,1.77,0,0,0-.68-.35,2.63,2.63,0,0,0-.39-.06h-.33a1.23,1.23,0,0,0-.27,0l-.28.05a2.81,2.81,0,0,0-1.32,1,6.31,6.31,0,0,0-1,2.47c0,.09,0,.18-.05.28s0,.18,0,.27,0,.38-.07.56,0,.36,0,.54a3,3,0,0,0,.34,1.47,1.34,1.34,0,0,0,1.29.61h.35a1.1,1.1,0,0,0,.31,0l.35-.11a2.74,2.74,0,0,0,.82-.61,1.59,1.59,0,0,0,.44-.92h3.23a.31.31,0,0,1,0,.08.22.22,0,0,1,0,.08,2.29,2.29,0,0,1-.2.77,3.94,3.94,0,0,1-.64,1,6,6,0,0,1-1.83,1.38,6.63,6.63,0,0,1-3.09.63h-.26q-2.55,0-3.42-1a4.24,4.24,0,0,1-1-2.33l0-.41v-.42Zm-31,13.53a3.6,3.6,0,0,1,1.76-3,7.21,7.21,0,0,1,3.75-1h.37l.38,0a5.32,5.32,0,0,1,2.14.62,2,2,0,0,1,1,1.85,4.81,4.81,0,0,1,0,.52,4.73,4.73,0,0,1-.13.58l-3.13,0a.58.58,0,0,0,0-.18,1,1,0,0,0,0-.17.81.81,0,0,0-.37-.77,1.65,1.65,0,0,0-.86-.23h-.2a1.92,1.92,0,0,0-.94.34.91.91,0,0,0-.43.78c0,.31.29.58.87.82a13,13,0,0,0,2.13.63,3.52,3.52,0,0,1,1.53.67,2.39,2.39,0,0,1,.69.93,2,2,0,0,1,.13.46,2.42,2.42,0,0,1,0,.45,3.84,3.84,0,0,1-1.44,2.91,6.35,6.35,0,0,1-4.32,1.28c-1.66,0-2.75-.29-3.26-.87a2.87,2.87,0,0,1-.76-2,1.93,1.93,0,0,1,0-.24c0-.08,0-.16,0-.24l0-.25,0-.24,3.1,0a1.48,1.48,0,0,0,0,.2v.16a1.44,1.44,0,0,0,.32,1,1.26,1.26,0,0,0,1,.38,3.29,3.29,0,0,0,.38,0l.46-.12a2.34,2.34,0,0,0,.74-.41.87.87,0,0,0,.34-.73v-.14c0-.25-.19-.46-.58-.64a9.55,9.55,0,0,0-1.28-.45l-.85-.23a5.9,5.9,0,0,1-.69-.21h0l0,0h0a3,3,0,0,0-.32-.12l-.35-.13a2.42,2.42,0,0,1-.85-.65,2.39,2.39,0,0,1-.38-1.5Zm9.58,7.31,2.28-11h8.52l-.49,2.15h-5.27L609,56.73h4.92L613.41,59h-4.92L608,61.16h5.41l-.49,2.29ZM616,56.14h0a2,2,0,0,0,1.24,2.15l.35.13a3,3,0,0,1,.32.12h0l0,0h0a6.31,6.31,0,0,0,.68.21l.86.23a10.07,10.07,0,0,1,1.28.45c.38.18.57.39.57.64v.14a.89.89,0,0,1-.33.73,2.28,2.28,0,0,1-.75.41,3.74,3.74,0,0,1-.45.12,3.29,3.29,0,0,1-.38,0,1.26,1.26,0,0,1-1-.38,1.39,1.39,0,0,1-.32-1v-.16a1.48,1.48,0,0,1,0-.2l-3.11,0,0,.24,0,.25v.24a1.93,1.93,0,0,0,0,.24,2.87,2.87,0,0,0,.76,2c.51.58,1.59.87,3.26.87a6.35,6.35,0,0,0,4.32-1.28,3.84,3.84,0,0,0,1.44-2.91,3.75,3.75,0,0,0,0-.45,2.64,2.64,0,0,0-.13-.46,2.33,2.33,0,0,0-.7-.93,3.46,3.46,0,0,0-1.53-.67,12.62,12.62,0,0,1-2.12-.63c-.58-.24-.88-.51-.88-.82a.92.92,0,0,1,.44-.78,1.92,1.92,0,0,1,.93-.34h.2a1.66,1.66,0,0,1,.87.23.81.81,0,0,1,.37.77s0,.11,0,.17a1.16,1.16,0,0,1,0,.18l3.12,0a3.4,3.4,0,0,0,.13-.58,3.2,3.2,0,0,0,0-.52,2,2,0,0,0-1-1.85,5.32,5.32,0,0,0-2.15-.62l-.37,0h-.37a7.22,7.22,0,0,0-3.76,1,3.6,3.6,0,0,0-1.76,3Zm9.7,7.31,2.4-11h3.12l-2.27,11ZM587.62,73a3.6,3.6,0,0,1,1.76-3,7.21,7.21,0,0,1,3.76-.94h.37l.37,0a5.36,5.36,0,0,1,2.15.62,1.94,1.94,0,0,1,1,1.85,3.08,3.08,0,0,1,0,.51,3.2,3.2,0,0,1-.13.58h-3.12a1.16,1.16,0,0,0,0-.18V72.3a.79.79,0,0,0-.36-.77,1.58,1.58,0,0,0-.87-.24h-.2a1.93,1.93,0,0,0-.93.35.9.9,0,0,0-.44.78c0,.3.29.58.88.82a14.81,14.81,0,0,0,2.12.63,3.41,3.41,0,0,1,1.53.67,2.29,2.29,0,0,1,.7.93,2.42,2.42,0,0,1,.13.46,3.64,3.64,0,0,1,0,.45,3.84,3.84,0,0,1-1.43,2.9,6.32,6.32,0,0,1-4.32,1.29c-1.67,0-2.76-.29-3.26-.87a2.91,2.91,0,0,1-.76-2v-.24a2.09,2.09,0,0,0,0-.25l0-.24,0-.24,3.11,0a1.37,1.37,0,0,0,0,.19v.16a1.45,1.45,0,0,0,.32,1,1.29,1.29,0,0,0,1,.37,2.05,2.05,0,0,0,.39,0,2.46,2.46,0,0,0,.45-.11,2.28,2.28,0,0,0,.75-.41.92.92,0,0,0,.33-.73V77c0-.25-.19-.47-.58-.64a9.38,9.38,0,0,0-1.27-.46l-.86-.23a6.31,6.31,0,0,1-.68-.21h0a.05.05,0,0,1,0,0h0l-.32-.11-.35-.13a2.37,2.37,0,0,1-.85-.66,2.27,2.27,0,0,1-.39-1.49Zm9.58,7.31,2.29-11H608l-.49,2.15h-5.27l-.48,2.16h4.91l-.47,2.28h-4.92L600.8,78h5.4l-.48,2.29Zm10.19,0h2.88l1.68-8.4,2,8.4h4.32l2.39-11h-2.88L616,77.2l-1.92-7.9h-4.43l-2.29,11Zm12,0,6.6-11h3.84l2,11h-3.49L628,78.16H623.7l-1.19,2.17Zm8.4-4.44-.48-4.67-2.4,4.67ZM633,80.33l2.39-11h3.12l-2.27,11ZM599.85,97.2l2.39-11h3.13l-2.27,11Zm4.92,0h8.52l.48-2.28h-5.4l.48-2.15h4.92l.47-2.29h-4.91l.48-2.16h5.27l.49-2.15h-8.51l-2.29,11Zm10.19,0,2.29-11h3.23l-1.92,8.64h5l-.48,2.39Z"/><path class="cls-2" d="M792.17,40.82c5.59-19.93-10.63-26-27.69-26-17.29,0-35.61,5.38-40.69,25-1.89,8.93.61,16.49,8.19,20.15,16.3,7.9,33.76,5.5,31.37,16.72-1.16,5.49-8.49,8.24-13.77,8.24-8.25,0-13.06-4.23-11.3-12h-22.9C711,95.32,726.71,101,746,101s38-8.26,41.76-25.67C792.44,53,772.59,51.58,759.48,48c-5.72-1.6-12.63-3.55-11.35-9.62.87-4.12,6.18-7.55,11.45-7.55,3.89,0,6.68.91,8.26,2.63s2.21,4.12,1.43,7.33Zm66.24,58.4h-63L813,16.54h63l-3.42,16H832.5l-3.63,17.07h36.87l-3.39,16H825.48l-3.73,17.52h40.08l-3.42,16Zm12.94,0H892l13.46-63.33h.23l14.6,63.33H952l17.58-82.68H948.93l-13,61.38-.27.23L921,16.54H888.93L871.35,99.22Zm112,0h-22.9l50.21-82.68h27.94l15.06,82.68h-25.88l-2.06-16.15H992.16l-8.82,16.15Zm18-32.18h22.1l-3.22-34.35h-.35L1001.39,67Zm83.86,32.18,17.58-82.68h-22.91l-17.57,82.68Z"/><rect class="cls-1" x="135.07" width="351.84" height="115.94"/><path class="cls-2" d="M157,98.93h-22v2.5h22v-2.5ZM157,82h-22v2.51h22V82Zm0-16.89h-22v2.51h22V65.15Zm0-16.89h-22v2.51h22V48.26Zm0-16.88h-22v2.51h22V31.38Zm0-16.89h-22V17h22Z"/><path class="cls-2" d="M486.9,98.93h-22v2.5h22v-2.5Zm0-16.89h-22v2.51h22V82Zm0-16.89h-22v2.51h22V65.15Zm0-16.89h-22v2.51h22V48.26Zm0-16.88h-22v2.51h22V31.38Zm0-16.89h-22V17h22Z"/><rect class="cls-1" width="123.17" height="115.92"/><path class="cls-2" d="M14.49,98.93h94.19v2.5H14.49v-2.5Zm0-16.89h94.19v2.51H14.49V82Zm0-16.89h94.19v2.51H14.49V65.15Zm0-16.89h94.19v2.51H14.49V48.26Zm0-16.88h94.19v2.51H14.49V31.38Zm0-16.89h94.19V17H14.49Z"/><path class="cls-2" d="M38.21,29.7l2.27-11h7.8l-.35,2.15h-4.8l-.49,2.4h4.45l-.49,2.27H42.17l-.84,4.21Zm9.23,0h3.24l2.27-11H49.83l-2.39,11Zm4.92,0,2.28-11h8.52l-.49,2.15H57.4L56.91,23h4.92l-.47,2.28H56.44L56,27.41h5.41l-.49,2.29ZM64,22.39h0a2,2,0,0,0,1.24,2.15l.35.13.32.11h0l0,0h0a6.1,6.1,0,0,0,.68.22l.86.22a11.15,11.15,0,0,1,1.28.46c.38.17.58.39.58.64v.14a.91.91,0,0,1-.34.73,2.28,2.28,0,0,1-.75.41,2.46,2.46,0,0,1-.45.11,2,2,0,0,1-.38,0,1.26,1.26,0,0,1-1-.37,1.4,1.4,0,0,1-.32-1v-.16a1.34,1.34,0,0,1,0-.19l-3.11,0,0,.24,0,.25v.24a1.93,1.93,0,0,0,0,.24,2.91,2.91,0,0,0,.76,2c.51.58,1.59.87,3.26.87a6.3,6.3,0,0,0,4.32-1.29,3.8,3.8,0,0,0,1.44-2.9,3.75,3.75,0,0,0,0-.45,2.64,2.64,0,0,0-.13-.46,2.26,2.26,0,0,0-.69-.93,3.51,3.51,0,0,0-1.54-.67,12.91,12.91,0,0,1-2.12-.63c-.58-.24-.88-.51-.88-.82a.92.92,0,0,1,.44-.78,1.92,1.92,0,0,1,.94-.34h.19a1.57,1.57,0,0,1,.87.23.81.81,0,0,1,.37.77s0,.11,0,.17a1.16,1.16,0,0,1,0,.18l3.12,0a3.62,3.62,0,0,0,.13-.58,3.2,3.2,0,0,0,0-.52,2,2,0,0,0-1-1.85,5.32,5.32,0,0,0-2.15-.62l-.37,0h-.37a7.24,7.24,0,0,0-3.76.95,3.62,3.62,0,0,0-1.76,3Zm10.3,3.35a11,11,0,0,1,.09-1.33,8.81,8.81,0,0,1,.32-1.49,7.58,7.58,0,0,1,2-3.12,6.36,6.36,0,0,1,4.44-1.48l.75,0,.8.09a5.81,5.81,0,0,1,2.13.74,2,2,0,0,1,1,1.89c0,.13,0,.27,0,.41a3.43,3.43,0,0,1-.09.44H82.33a.88.88,0,0,0,0-.16.81.81,0,0,0,0-.15,1,1,0,0,0-.31-.8,1.58,1.58,0,0,0-.68-.35L81,20.38l-.32,0-.28,0-.27.06a2.82,2.82,0,0,0-1.33,1,6.37,6.37,0,0,0-1,2.48l-.06.27,0,.27c0,.2-.06.38-.07.57a4.84,4.84,0,0,0,0,.53,3,3,0,0,0,.35,1.48,1.35,1.35,0,0,0,1.28.61h.17l.18,0a1.17,1.17,0,0,0,.32,0,1.9,1.9,0,0,0,.34-.11,2.54,2.54,0,0,0,.82-.6,1.56,1.56,0,0,0,.44-.92l3.23,0,0,.09v.08a2,2,0,0,1-.2.76,4,4,0,0,1-.63,1,6,6,0,0,1-1.84,1.39,6.72,6.72,0,0,1-3.08.62h-.26c-1.71,0-2.85-.35-3.43-1.05a4.21,4.21,0,0,1-1-2.33c0-.13,0-.27,0-.4s0-.28,0-.41ZM37.42,42.61a11.12,11.12,0,0,1,.09-1.33,8.11,8.11,0,0,1,.32-1.49,7.51,7.51,0,0,1,2-3.11,6.28,6.28,0,0,1,4.44-1.48c.23,0,.48,0,.74,0a7.4,7.4,0,0,1,.81.08,5.65,5.65,0,0,1,2.13.75,2,2,0,0,1,1,1.89,2.93,2.93,0,0,1,0,.41,2.41,2.41,0,0,1-.08.44H45.46a1,1,0,0,0,0-.16.86.86,0,0,0,0-.15,1,1,0,0,0-.31-.81,1.77,1.77,0,0,0-.68-.35,2.63,2.63,0,0,0-.39-.06h-.33a1.23,1.23,0,0,0-.27,0l-.28.05a2.81,2.81,0,0,0-1.32,1,6.31,6.31,0,0,0-1,2.47c0,.09,0,.18,0,.28s0,.18,0,.27-.05.38-.07.56,0,.36,0,.54A3,3,0,0,0,41.06,44a1.34,1.34,0,0,0,1.29.61h.35a1.1,1.1,0,0,0,.31,0l.35-.11a2.87,2.87,0,0,0,.82-.61,1.59,1.59,0,0,0,.44-.92h3.23a.31.31,0,0,1,0,.08.22.22,0,0,1,0,.08,2.29,2.29,0,0,1-.2.77,3.94,3.94,0,0,1-.64,1,6,6,0,0,1-1.83,1.38,6.63,6.63,0,0,1-3.09.63h-.26q-2.55,0-3.42-1a4.24,4.24,0,0,1-1-2.33l0-.41v-.42Zm11.28,4H52l2.27-11H51.09l-2.39,11Zm4.92,0,2.29-11h8.51l-.49,2.14H58.66l-.48,2.17h4.91l-.47,2.28H57.7l-.48,2.15h5.4l-.48,2.28Zm11.64-7.31v0a2,2,0,0,0,1.23,2.14,1.89,1.89,0,0,0,.35.13l.32.12h0l0,0h0a6.57,6.57,0,0,0,.69.21l.85.23a8,8,0,0,1,1.28.46c.39.17.58.38.58.64v.13a.9.9,0,0,1-.34.74,2.34,2.34,0,0,1-.74.41,2.56,2.56,0,0,1-.46.11,2,2,0,0,1-.38,0,1.29,1.29,0,0,1-1-.37,1.47,1.47,0,0,1-.32-1v-.16a1.37,1.37,0,0,1,0-.19H64.3l0,.25,0,.24c0,.08,0,.16,0,.24a2.18,2.18,0,0,0,0,.25A3,3,0,0,0,65,46c.51.58,1.6.87,3.26.87a6.3,6.3,0,0,0,4.32-1.29A3.83,3.83,0,0,0,74,42.63a2.42,2.42,0,0,0,0-.45,2.06,2.06,0,0,0-.13-.47,2.3,2.3,0,0,0-.69-.92,3.41,3.41,0,0,0-1.53-.67,13.55,13.55,0,0,1-2.12-.64c-.59-.24-.88-.51-.88-.81a.91.91,0,0,1,.43-.79,2,2,0,0,1,.94-.34h.2a1.63,1.63,0,0,1,.87.24.8.8,0,0,1,.36.77.92.92,0,0,1,0,.16.58.58,0,0,1,0,.19h3.12a4.35,4.35,0,0,0,.13-.58,4.73,4.73,0,0,0,0-.52,2,2,0,0,0-1-1.85,5.26,5.26,0,0,0-2.14-.61l-.37,0h-.38a7.2,7.2,0,0,0-3.75.94,3.6,3.6,0,0,0-1.76,3Zm10.29,3.35a9.5,9.5,0,0,1,.1-1.33A8.11,8.11,0,0,1,76,39.79a7.48,7.48,0,0,1,2-3.11,6.31,6.31,0,0,1,4.44-1.48c.24,0,.49,0,.75,0a7.92,7.92,0,0,1,.81.08,5.65,5.65,0,0,1,2.13.75,2,2,0,0,1,1,1.89,2.88,2.88,0,0,1,0,.41,3.73,3.73,0,0,1-.08.44H83.6a.78.78,0,0,1,0-.16c0-.06,0-.11,0-.15a1,1,0,0,0-.32-.81,1.66,1.66,0,0,0-.67-.35l-.39-.06h-.33a1.23,1.23,0,0,0-.27,0l-.28.05a2.72,2.72,0,0,0-1.32,1,6.31,6.31,0,0,0-1,2.47,2.33,2.33,0,0,0-.05.28,2.51,2.51,0,0,0,0,.27c0,.19,0,.38-.07.56s0,.36,0,.54A2.93,2.93,0,0,0,79.2,44a1.34,1.34,0,0,0,1.29.61h.35a1.15,1.15,0,0,0,.31,0,2.67,2.67,0,0,0,.34-.11,2.77,2.77,0,0,0,.83-.61,1.59,1.59,0,0,0,.44-.92H86s0,.06,0,.08S86,43,86,43a2.29,2.29,0,0,1-.2.77,4.23,4.23,0,0,1-.64,1,6,6,0,0,1-1.84,1.38,6.56,6.56,0,0,1-3.08.63H80c-1.7,0-2.85-.35-3.43-1a4.39,4.39,0,0,1-1-2.33c0-.14,0-.27,0-.41s0-.27,0-.4v0Zm-31,13.53a3.62,3.62,0,0,1,1.76-3,7.24,7.24,0,0,1,3.76-1h.37l.37,0a5.32,5.32,0,0,1,2.15.62,2,2,0,0,1,1,1.85,3.2,3.2,0,0,1,0,.52,3.4,3.4,0,0,1-.13.58l-3.12,0a1.16,1.16,0,0,0,0-.18,1,1,0,0,0,0-.17.81.81,0,0,0-.37-.77,1.66,1.66,0,0,0-.87-.23h-.19a1.92,1.92,0,0,0-.94.34.91.91,0,0,0-.43.78c0,.31.29.58.87.82a12.48,12.48,0,0,0,2.13.63,3.52,3.52,0,0,1,1.53.67,2.32,2.32,0,0,1,.69.93,2.64,2.64,0,0,1,.13.46,3.75,3.75,0,0,1,0,.45,3.84,3.84,0,0,1-1.44,2.91,6.35,6.35,0,0,1-4.32,1.28c-1.67,0-2.75-.29-3.26-.87a2.87,2.87,0,0,1-.76-2,1.93,1.93,0,0,1,0-.24v-.24l0-.25a2,2,0,0,1,0-.24l3.1,0a1.48,1.48,0,0,0,0,.2v.16a1.39,1.39,0,0,0,.32,1,1.26,1.26,0,0,0,1,.38,3.53,3.53,0,0,0,.38,0l.45-.12a2.28,2.28,0,0,0,.75-.41.89.89,0,0,0,.33-.73v-.14c0-.25-.19-.46-.57-.64A10.07,10.07,0,0,0,48.05,59l-.85-.23a5.9,5.9,0,0,1-.69-.21h0l0,0h0a3,3,0,0,0-.32-.12l-.35-.13a2,2,0,0,1-1.24-2.15Zm9.58,7.31,2.29-11h8.51l-.48,2.15H59.13l-.48,2.16h4.92L63.1,59H58.18l-.49,2.14H63.1l-.49,2.29Zm11.64-7.31h0a2.32,2.32,0,0,0,.39,1.5,2.39,2.39,0,0,0,.84.65l.35.13a2.38,2.38,0,0,1,.32.12h0l0,0h0a6.31,6.31,0,0,0,.68.21l.85.23a9.08,9.08,0,0,1,1.28.45c.39.18.58.39.58.64v.14a.89.89,0,0,1-.33.73,2.38,2.38,0,0,1-.75.41,3.45,3.45,0,0,1-.46.12,3.29,3.29,0,0,1-.38,0,1.29,1.29,0,0,1-1-.38,1.44,1.44,0,0,1-.32-1v-.16a1.68,1.68,0,0,1,0-.2l-3.11,0,0,.24,0,.25a1.93,1.93,0,0,1,0,.24c0,.08,0,.16,0,.24a2.88,2.88,0,0,0,.77,2c.5.58,1.59.87,3.26.87A6.32,6.32,0,0,0,73,62.41a3.84,3.84,0,0,0,1.44-2.91,3.64,3.64,0,0,0,0-.45,2.64,2.64,0,0,0-.13-.46,2.46,2.46,0,0,0-.7-.93A3.52,3.52,0,0,0,72.08,57,12.62,12.62,0,0,1,70,56.36c-.59-.24-.88-.51-.88-.82a.93.93,0,0,1,.43-.78,2,2,0,0,1,.94-.34h.2a1.71,1.71,0,0,1,.87.23.82.82,0,0,1,.36.77v.17a1.16,1.16,0,0,1,0,.18l3.12,0a4.73,4.73,0,0,0,.13-.58,3.2,3.2,0,0,0,0-.52,2,2,0,0,0-1-1.85A5.36,5.36,0,0,0,72,52.22l-.37,0h-.38a7.21,7.21,0,0,0-3.75,1,3.6,3.6,0,0,0-1.76,3Zm9.7,7.31,2.39-11H81l-2.27,11ZM37.31,73a3.6,3.6,0,0,1,1.76-3,7.2,7.2,0,0,1,3.75-.94h.38l.37,0a5.36,5.36,0,0,1,2.15.62,1.94,1.94,0,0,1,1,1.85,4.75,4.75,0,0,1,0,.51,4.35,4.35,0,0,1-.13.58H43.42a.57.57,0,0,0,0-.18,1.09,1.09,0,0,0,0-.17.81.81,0,0,0-.36-.77,1.63,1.63,0,0,0-.87-.24H42a2,2,0,0,0-.94.35.89.89,0,0,0-.43.78c0,.3.29.58.88.81a13.55,13.55,0,0,0,2.12.64,3.41,3.41,0,0,1,1.53.67,2.26,2.26,0,0,1,.69.93,1.51,1.51,0,0,1,.13.46,2.42,2.42,0,0,1,0,.45,3.82,3.82,0,0,1-1.44,2.9,6.3,6.3,0,0,1-4.32,1.29c-1.66,0-2.75-.29-3.25-.87a2.92,2.92,0,0,1-.77-2c0-.08,0-.16,0-.24a2.09,2.09,0,0,0,0-.25l0-.24,0-.24,3.11,0a1.37,1.37,0,0,0,0,.19v.16a1.45,1.45,0,0,0,.32,1,1.26,1.26,0,0,0,1,.37,2,2,0,0,0,.38,0,2.56,2.56,0,0,0,.46-.11,2.5,2.5,0,0,0,.75-.41.92.92,0,0,0,.33-.73V77c0-.25-.19-.47-.58-.64a9.06,9.06,0,0,0-1.28-.46L40,75.66q-.41-.1-.69-.21h0l0,0h0l-.32-.11-.35-.13a2.43,2.43,0,0,1-.84-.66A2.27,2.27,0,0,1,37.31,73Zm9.58,7.3,2.28-11h8.52l-.49,2.15H51.93l-.49,2.16h4.92l-.47,2.28H51L50.48,78h5.41l-.49,2.28Zm10.19,0H60l1.67-8.39,2,8.39H68l2.39-11H67.51l-1.8,7.9L63.8,69.3H59.36l-2.28,11Zm12,0,6.6-11h3.83l2,11H78.07l-.35-2.16H73.39L72.2,80.32Zm8.39-4.43L77,71.22l-2.41,4.67Zm5.17,4.43L85,69.3h3.12l-2.27,11ZM49.54,97.2l2.39-11h3.12l-2.27,11Zm4.92,0H63l.49-2.28H58.05l.49-2.15h4.92l.47-2.29H59l.49-2.16h5.27l.49-2.15H56.74l-2.28,11Zm10.19,0,2.28-11h3.23l-1.92,8.64h5l-.47,2.39Z"/><path class="cls-2" d="M245.93,42.26c5.85-20.85-11.13-27.2-29-27.2-18.1,0-37.27,5.63-42.59,26.13-2,9.34.64,17.25,8.57,21.09C200,70.55,218.26,68,215.76,79.78c-1.22,5.75-8.89,8.63-14.42,8.63-8.63,0-13.66-4.44-11.83-12.59h-24c-4.63,23.5,11.87,29.39,32,29.39s39.84-8.65,43.71-26.87C246.2,55,225.43,53.53,211.71,49.82c-6-1.68-13.23-3.72-11.89-10.07.92-4.32,6.47-7.91,12-7.91,4.07,0,7,1,8.65,2.75s2.31,4.32,1.49,7.67Zm69.33,61.13H249.34l18.4-86.54h65.92l-3.58,16.78H288.13l-3.79,17.86h38.59l-3.55,16.78h-38.6l-3.89,18.34h41.95l-3.58,16.78ZM412.4,42.26c5.86-20.85-11.12-27.2-29-27.2-18.1,0-37.28,5.63-42.59,26.13-2,9.34.64,17.25,8.57,21.09,17.06,8.27,35.34,5.75,32.84,17.5-1.22,5.75-8.89,8.63-14.42,8.63-8.63,0-13.67-4.44-11.83-12.59H332c-4.63,23.5,11.87,29.39,32,29.39s39.83-8.65,43.71-26.87c4.95-23.37-15.82-24.81-29.54-28.52-6-1.68-13.23-3.72-11.89-10.07.92-4.32,6.47-7.91,12-7.91,4.08,0,7,1,8.65,2.75s2.32,4.32,1.5,7.67Zm27.15,61.13h-24L434,16.85h24Z"/><rect class="cls-3" x="1193.85" width="5.8" height="115.94"/><g class="cls-4"><path class="cls-5" d="M1405.75,20.7H1454v8.15h-39.49v20.2H1451v7.7h-36.5V79.3h40.17v7.93h-49Z"/><path class="cls-5" d="M1472.64,65.76a18.73,18.73,0,0,0,2.57,9.19q4.33,6.61,15.23,6.62a26,26,0,0,0,8.9-1.45q7.77-2.82,7.77-10.06,0-5.43-3.29-7.74t-10.45-3.94l-8.72-2q-8.57-2-12.11-4.39-6.15-4.17-6.15-12.46a19.43,19.43,0,0,1,6-14.72q6-5.74,17.1-5.75,10.18,0,17.3,5.05T1514,40.22h-8.47a17.29,17.29,0,0,0-2.78-8.2q-3.95-5.21-13.42-5.21-7.63,0-11,3.35A10.74,10.74,0,0,0,1475,38a7.67,7.67,0,0,0,4,7.16q2.6,1.45,11.72,3.62l9,2.13a27.12,27.12,0,0,1,10.09,4.21q6.15,4.66,6.15,13.54,0,11.06-7.85,15.81a34.41,34.41,0,0,1-18.21,4.75q-12.12,0-18.95-6.34t-6.72-17.07Z"/><path class="cls-5" d="M1529.48,20.7h29.77q8.84,0,14.26,5t5.43,14.06a20.45,20.45,0,0,1-4.85,13.57q-4.83,5.78-14.82,5.77h-20.78V87.23h-9Zm35,9.15a19.29,19.29,0,0,0-8.14-1.41h-17.81V51.49h17.81a16.94,16.94,0,0,0,9.78-2.58q3.75-2.58,3.75-9.1Q1569.83,32.48,1564.44,29.85Z"/><path class="cls-5" d="M1603.06,20.7h10.17l24.15,66.53h-9.87l-7-19.93h-26.1l-7.21,19.93H1578ZM1618,60l-10.25-29.39L1597.12,60Z"/><path class="cls-5" d="M1692.57,25.54q6.89,6.66,7.65,15.13h-8.78a18.37,18.37,0,0,0-5.85-10.19q-4.38-3.77-12.3-3.76a19.56,19.56,0,0,0-15.59,6.91q-5.94,6.91-5.94,21.19,0,11.7,5.36,19t16,7.28q9.78,0,14.9-7.66a29.37,29.37,0,0,0,4-10.59h8.79a30.22,30.22,0,0,1-7.7,17.61Q1685.32,89,1673,89l-3,4.08a11.72,11.72,0,0,1,3.4-.41,7.56,7.56,0,0,1,5.23,1.84,6.63,6.63,0,0,1,2.06,5.23,7.79,7.79,0,0,1-2.72,5.93q-2.71,2.49-8.33,2.49a19.67,19.67,0,0,1-5-.68,37.36,37.36,0,0,1-3.9-1.27l1.59-3.66q1.71.63,2.67.9a12.66,12.66,0,0,0,3.35.5,7.56,7.56,0,0,0,2.9-.5,3.43,3.43,0,0,0,2.35-3.44,3.23,3.23,0,0,0-1.2-2.51,4.64,4.64,0,0,0-3.19-1.07,8.09,8.09,0,0,0-1.79.18,15.44,15.44,0,0,0-1.88.59L1664,95.33l4.62-6.34q-7.78,0-15.62-6.3-10.42-10-10.43-29.41,0-14.72,7.7-24.15,8.33-10.24,23-10.24Q1685.67,18.89,1692.57,25.54Z"/><path class="cls-5" d="M1767.3,30.21q6.6,8.84,6.61,22.6,0,14.89-7.56,24.77-8.89,11.6-25.32,11.59-15.36,0-24.14-10.14-7.85-9.78-7.84-24.73,0-13.48,6.71-23.1,8.6-12.32,25.45-12.31Q1758.82,18.89,1767.3,30.21Zm-8,42.41A36.48,36.48,0,0,0,1764.67,53q0-11.74-6.14-18.91t-16.78-7.16q-10.32,0-16.84,7.1t-6.53,20.91q0,11.07,5.6,18.66t18.14,7.59Q1754,81.16,1759.35,72.62Z"/><path class="cls-5" d="M1810.82,20.7h26.59q13.54,0,21,9.73,6.66,8.79,6.66,22.51a45.4,45.4,0,0,1-3.94,19.16q-6.93,15.12-23.82,15.13h-26.5Zm24.82,58.83a24,24,0,0,0,7.35-1,16.19,16.19,0,0,0,8.42-6.8,28.16,28.16,0,0,0,3.76-10.32,39.64,39.64,0,0,0,.67-7q0-12.36-4.81-19.2t-15.48-6.84h-15.63V79.53Z"/><path class="cls-5" d="M1932.2,30.21q6.6,8.84,6.61,22.6,0,14.89-7.56,24.77-8.89,11.6-25.32,11.59-15.36,0-24.14-10.14-7.85-9.78-7.84-24.73,0-13.48,6.71-23.1,8.6-12.32,25.45-12.31Q1923.72,18.89,1932.2,30.21Zm-8,42.41A36.48,36.48,0,0,0,1929.57,53q0-11.74-6.14-18.91t-16.78-7.16q-10.32,0-16.84,7.1t-6.53,20.91q0,11.07,5.6,18.66T1907,81.16Q1918.92,81.16,1924.25,72.62Z"/><path class="cls-5" d="M1976.17,20.7h48.28v8.15H1985v20.2h36.5v7.7H1985V79.3h40.17v7.93h-49Z"/><path class="cls-5" d="M2043.06,65.76a18.73,18.73,0,0,0,2.57,9.19q4.34,6.61,15.23,6.62a25.92,25.92,0,0,0,8.9-1.45q7.77-2.82,7.77-10.06,0-5.43-3.29-7.74c-2.22-1.51-5.71-2.83-10.44-3.94l-8.73-2q-8.57-2-12.11-4.39-6.15-4.17-6.15-12.46a19.43,19.43,0,0,1,6-14.72q6-5.74,17.1-5.75,10.18,0,17.3,5.05t7.12,16.15h-8.47c-.44-3.56-1.36-6.3-2.78-8.2q-3.95-5.21-13.42-5.21-7.63,0-11,3.35a10.74,10.74,0,0,0-3.34,7.79,7.67,7.67,0,0,0,4,7.16q2.59,1.45,11.72,3.62l9,2.13a27.12,27.12,0,0,1,10.09,4.21q6.15,4.66,6.15,13.54,0,11.06-7.84,15.81a34.44,34.44,0,0,1-18.22,4.75q-12.12,0-19-6.34t-6.71-17.07Z"/><path class="cls-5" d="M2147.41,20.7v7.92H2125V87.23h-9.1V28.62h-22.42V20.7Z"/><path class="cls-5" d="M2165.44,20.7V61.82a24,24,0,0,0,2.74,12.05q4.05,7.25,13.69,7.24,11.55,0,15.71-7.83,2.22-4.26,2.23-11.46V20.7h9.1V58.06q0,12.27-3.31,18.89-6.09,12-23,12t-22.95-12q-3.32-6.61-3.32-18.89V20.7Z"/><path class="cls-5" d="M2223.09,20.7h26.59q13.55,0,21,9.73,6.66,8.79,6.66,22.51a45.4,45.4,0,0,1-3.94,19.16q-6.93,15.12-23.82,15.13h-26.5Zm24.82,58.83a24,24,0,0,0,7.35-1,16.19,16.19,0,0,0,8.42-6.8,28.16,28.16,0,0,0,3.76-10.32,39.64,39.64,0,0,0,.67-7q0-12.36-4.81-19.2t-15.48-6.84h-15.63V79.53Z"/><path class="cls-5" d="M2309.08,20.7h10.17l24.15,66.53h-9.87l-7-19.93h-26.1l-7.21,19.93H2284ZM2324,60l-10.24-29.39L2303.14,60Z"/><path class="cls-5" d="M2351.53,20.7h10.62l33.18,53.75V20.7h8.6V87.23H2393.8l-33.66-53.69V87.23h-8.61Z"/><path class="cls-5" d="M2466.88,20.7v7.92h-22.41V87.23h-9.11V28.62h-22.42V20.7Z"/><path class="cls-5" d="M2476,20.7h48.28v8.15h-39.49v20.2h36.5v7.7h-36.5V79.3H2525v7.93h-49Z"/></g><polygon class="cls-6" points="1365.68 47.82 1343.44 69.43 1309.07 69.43 1309.07 47.82 1365.68 47.82"/><path class="cls-6" d="M1365.68,47.82h-22.24a36,36,0,1,0-34.37,46.82v21.61a57.62,57.62,0,1,1,56.61-68.43Z"/><path class="cls-7" d="M1365.68,47.82h-22.24a36.15,36.15,0,0,0-17.89-21.23V17.32h23.7A57.43,57.43,0,0,1,1365.68,47.82Z"/></g></g></svg>